<svg width="16" height="16" viewBox="0 0 16 16" fill="none" xmlns="http://www.w3.org/2000/svg">
<path d="M4.47461 5H6V6.00098H4.49902C4.43066 6.00098 4.36556 6.014 4.30371 6.04004C4.24512 6.06608 4.19303 6.10189 4.14746 6.14746C4.10189 6.19303 4.06608 6.24674 4.04004 6.30859C4.014 6.36719 4.00098 6.43066 4.00098 6.49902V9H3V6.47461C3 6.2793 3.03906 6.09212 3.11719 5.91309C3.19857 5.73405 3.30599 5.5778 3.43945 5.44434C3.57617 5.30762 3.73405 5.2002 3.91309 5.12207C4.09212 5.04069 4.2793 5 4.47461 5Z" fill="black"/>
<path d="M3 9V11.5254C3 11.7207 3.03906 11.9079 3.11719 12.0869C3.19857 12.266 3.30599 12.4238 3.43945 12.5605C3.57617 12.694 3.73405 12.8014 3.91309 12.8828C4.09212 12.9609 4.2793 13 4.47461 13H6V11.999H4.49902C4.43066 11.999 4.36556 11.986 4.30371 11.96C4.24512 11.9339 4.19303 11.8981 4.14746 11.8525C4.10189 11.807 4.06608 11.7549 4.04004 11.6963C4.014 11.6344 4.00098 11.5693 4.00098 11.501V9H3Z" fill="black"/>
<path d="M6 11.999V13H9.52539C9.7207 13 9.90788 12.9609 10.0869 12.8828C10.266 12.8014 10.4222 12.694 10.5557 12.5605C10.6924 12.4238 10.7998 12.266 10.8779 12.0869C10.9593 11.9079 11 11.7207 11 11.5254V9H9.99902V11.501C9.99902 11.5693 9.986 11.6344 9.95996 11.6963C9.93392 11.7549 9.89811 11.807 9.85254 11.8525C9.80697 11.8981 9.75325 11.9339 9.69141 11.96C9.63281 11.986 9.56934 11.999 9.50098 11.999H6Z" fill="black"/>
<path d="M9.99902 9H11V6.47461C11 6.2793 10.9593 6.09212 10.8779 5.91309C10.7998 5.73405 10.6924 5.5778 10.5557 5.44434C10.4222 5.30762 10.266 5.2002 10.0869 5.12207C9.90788 5.04069 9.7207 5 9.52539 5H6V6.00098H9.50098C9.56934 6.00098 9.63281 6.014 9.69141 6.04004C9.75325 6.06608 9.80697 6.10189 9.85254 6.14746C9.89811 6.19303 9.93392 6.24674 9.95996 6.30859C9.986 6.36719 9.99902 6.43066 9.99902 6.49902V9Z" fill="black"/>
<path d="M6 3V4.00098H11.501C11.5693 4.00098 11.6328 4.014 11.6914 4.04004C11.7533 4.06608 11.807 4.10189 11.8525 4.14746C11.8981 4.19303 11.9339 4.24674 11.96 4.30859C11.986 4.36719 11.999 4.43066 11.999 4.49902V10H13V4.47461C13 4.2793 12.9593 4.09212 12.8779 3.91309C12.7998 3.73405 12.6924 3.5778 12.5557 3.44434C12.4222 3.30762 12.266 3.2002 12.0869 3.12207C11.9079 3.04069 11.7207 3 11.5254 3H6Z" fill="black"/>
<path d="M5.36328 3.96097C5.4375 3.987 5.51562 4 5.59766 4L6 4.00098V3H5.59766C5.51562 3 5.4375 3.013 5.36328 3.03903C5.29297 3.06503 5.23047 3.10245 5.17578 3.15121C5.12109 3.19675 5.07812 3.2504 5.04688 3.31219C5.01562 3.37073 5 3.43414 5 3.50244C5 3.57074 5.01562 3.63577 5.04688 3.69757C5.07812 3.7561 5.12109 3.80814 5.17578 3.85367C5.23047 3.8992 5.29297 3.93497 5.36328 3.96097Z" fill="black"/>
<path d="M12.961 10.6367C12.987 10.5625 13 10.4844 13 10.4023V10H11.999L12 10.4023C12 10.4844 12.013 10.5625 12.039 10.6367C12.065 10.707 12.1024 10.7695 12.1512 10.8242C12.1967 10.8789 12.2504 10.9219 12.3122 10.9531C12.3707 10.9844 12.4341 11 12.5024 11C12.5707 11 12.6358 10.9844 12.6976 10.9531C12.7561 10.9219 12.8081 10.8789 12.8537 10.8242C12.8992 10.7695 12.935 10.707 12.961 10.6367Z" fill="black"/>
</svg>
